<svg xmlns="http://www.w3.org/2000/svg" xmlns:xlink="http://www.w3.org/1999/xlink" width="14.889" height="14.133" viewBox="0 0 14.889 14.133">
  <defs>
    <style>
      .cls-1 {
        fill: none;
      }

      .cls-2 {
        clip-path: url(#clip-path);
      }

      .cls-3 {
        fill: #fff;
      }
    </style>
    <clipPath id="clip-path">
      <rect class="cls-1" width="14.889" height="14.133"/>
    </clipPath>
  </defs>
  <g id="download" class="cls-2">
    <path id="Path_24" data-name="Path 24" class="cls-3" d="M-100.61-27.861a.34.34,0,0,0,.112.1.273.273,0,0,0,.129.032.269.269,0,0,0,.127-.032.332.332,0,0,0,.11-.093l3.2-4.061a.511.511,0,0,0,0-.6.294.294,0,0,0-.474,0l-2.631,3.336V-40.034a.389.389,0,0,0-.335-.425.389.389,0,0,0-.335.425v10.852l-2.631-3.336a.293.293,0,0,0-.474,0,.509.509,0,0,0,0,.6Z" transform="translate(107.813 40.459)"/>
    <path id="Path_25" data-name="Path 25" class="cls-3" d="M-105.561,17.486c-.242,0-.438.272-.438.606v3.7h-13.137v-3.7c0-.334-.2-.606-.438-.606s-.438.272-.438.606v4.3c0,.335.2.606.438.606h14.013c.242,0,.438-.272.438-.606v-4.3C-105.123,17.758-105.319,17.486-105.561,17.486Z" transform="translate(120.012 -8.869)"/>
  </g>
</svg>
